{
 "cells": [
  {
   "cell_type": "code",
   "execution_count": 4,
   "id": "8b8e8a70-48b6-4be6-89d6-b2e4f22e57c0",
   "metadata": {},
   "outputs": [],
   "source": [
    "import subprocess\n",
    "import random\n",
    "import os\n",
    "\n",
    "def concatenate_videos(video_files, output_file, overlay_videos, short_overlay_videos, effects_next):\n",
    "    print('Создание видео путем склеивания без переходов')\n",
    "    \n",
    "    with open(\"file_list.txt\", \"w\") as f:\n",
    "        for video in video_files:\n",
    "            f.write(f\"file '{video}'\\n\")\n",
    "    \n",
    "    command = [\n",
    "        'ffmpeg',\n",
    "        '-f', 'concat',\n",
    "        '-safe', '0',\n",
    "        '-i', 'file_list.txt',\n",
    "        '-c', 'copy',\n",
    "        '-y', output_file\n",
    "    ]\n",
    "    \n",
    "    print(' '.join(command))\n",
    "    try:\n",
    "        subprocess.run(command, shell=False, check=True)\n",
    "        print(\"Видео успешно склеены!\")\n",
    "    except subprocess.CalledProcessError as e:\n",
    "        print(\"Ошибка при склеивании видео:\", e)\n",
    "\n",
    "    durations = []\n",
    "    \n",
    "    for i in range(len(video_files) - 1):\n",
    "        video_duration = get_video_duration(video_files[i])\n",
    "        if effects_next[i]:\n",
    "            durations.append([effects_next[i], float(video_duration)])       \n",
    "    \n",
    "    apply_chromakey_with_overlays(output_file, overlay_videos, short_overlay_videos, durations,)\n",
    "\n",
    "\n",
    "def get_video_duration(video_file):\n",
    "    result = subprocess.run([\"ffprobe\", \"-v\", \"error\", \"-show_entries\", \"format=duration\", \"-of\", \"default=noprint_wrappers=1:nokey=1\", video_file], stdout=subprocess.PIPE, stderr=subprocess.PIPE)\n",
    "    return float(result.stdout)\n",
    "\n",
    "\n",
    "\n",
    "\n",
    "def apply_chromakey_with_overlays(base_video, overlay_videos, short_overlay_videos, durations):\n",
    "    # Выходное видео сохраняется с тем же именем\n",
    "    temp_file = \"videos/temp.mp4\"\n",
    "\n",
    "    filter_complex = []\n",
    "    inputs = [f'-i {base_video}']\n",
    "    for i, dur in enumerate(durations):\n",
    "        if dur[0] == 1:\n",
    "            inputs.append(f'-i {random.choice(overlay_videos)}')\n",
    "        elif dur[0] == 2: \n",
    "            inputs.append(f'-i {random.choice(short_overlay_videos)}')\n",
    "\n",
    "    \n",
    "    overlay_streams = []\n",
    "\n",
    "    duration = 0 \n",
    "    for i, dur in enumerate(durations):\n",
    "        if dur[0] == 1:\n",
    "            tr = f'tr{i}'\n",
    "            over = f'over{i}'\n",
    "            delay = duration + durations[i][1] - 2.5  \n",
    "            duration += durations[i][1]\n",
    "            filter_complex.append(\n",
    "                f'[{i+1}:v]chromakey=0x00FF00:0.15:0.25,setpts=PTS+{delay}/TB[{tr}]'\n",
    "            )\n",
    "            overlay_streams.append(tr)\n",
    "        elif dur[0] == 2:\n",
    "            tr = f'tr{i}'\n",
    "            over = f'over{i}'\n",
    "            delay = duration + durations[i][1] - 0.6\n",
    "            duration += durations[i][1]\n",
    "            filter_complex.append(\n",
    "                f'[{i+1}:v]chromakey=0x00FF00:0.15:0.25,setpts=PTS+{delay}/TB[{tr}]'\n",
    "            )\n",
    "            overlay_streams.append(tr)   \n",
    "            \n",
    "    base = '[0:v]'\n",
    "    for i, over in enumerate(overlay_streams):\n",
    "        output = f'base{i+1}' if i < len(overlay_streams) - 1 else 'v'\n",
    "        filter_complex.append(f'{base}[{over}]overlay[{output}]')\n",
    "        base = f'[{output}]'\n",
    "    \n",
    "    filter_complex_str = '; '.join(filter_complex)\n",
    "    \n",
    "    command = [\n",
    "        'ffmpeg',\n",
    "        *inputs,\n",
    "        '-filter_complex', f'\"{filter_complex_str}\"',\n",
    "        '-map', '[v]',\n",
    "        '-c:v', 'libx264',\n",
    "        '-c:a', 'aac',\n",
    "        '-preset', 'fast',\n",
    "        '-y', temp_file  # Перезаписываем исходный файл\n",
    "    ]\n",
    "\n",
    "    print(' '.join(command))\n",
    "    \n",
    "    subprocess.run(' '.join(command), shell=True)\n",
    "\n",
    "    os.replace(temp_file, base_video)\n",
    "\n",
    "    return base_video  # Возвращаем путь к перезаписанному файлу\n",
    "\n",
    "\n"
   ]
  },
  {
   "cell_type": "code",
   "execution_count": 6,
   "id": "146836c7-aa6e-4bc9-be26-54afd4032114",
   "metadata": {
    "scrolled": true
   },
   "outputs": [
    {
     "name": "stdout",
     "output_type": "stream",
     "text": [
      "Создание видео путем склеивания без переходов\n",
      "ffmpeg -f concat -safe 0 -i file_list.txt -c copy -y output.mp4\n",
      "Видео успешно склеены!\n"
     ]
    },
    {
     "name": "stderr",
     "output_type": "stream",
     "text": [
      "ffmpeg version 4.4.2-0ubuntu0.22.04.1 Copyright (c) 2000-2021 the FFmpeg developers\n",
      "  built with gcc 11 (Ubuntu 11.2.0-19ubuntu1)\n",
      "  configuration: --prefix=/usr --extra-version=0ubuntu0.22.04.1 --toolchain=hardened --libdir=/usr/lib/x86_64-linux-gnu --incdir=/usr/include/x86_64-linux-gnu --arch=amd64 --enable-gpl --disable-stripping --enable-gnutls --enable-ladspa --enable-libaom --enable-libass --enable-libbluray --enable-libbs2b --enable-libcaca --enable-libcdio --enable-libcodec2 --enable-libdav1d --enable-libflite --enable-libfontconfig --enable-libfreetype --enable-libfribidi --enable-libgme --enable-libgsm --enable-libjack --enable-libmp3lame --enable-libmysofa --enable-libopenjpeg --enable-libopenmpt --enable-libopus --enable-libpulse --enable-librabbitmq --enable-librubberband --enable-libshine --enable-libsnappy --enable-libsoxr --enable-libspeex --enable-libsrt --enable-libssh --enable-libtheora --enable-libtwolame --enable-libvidstab --enable-libvorbis --enable-libvpx --enable-libwebp --enable-libx265 --enable-libxml2 --enable-libxvid --enable-libzimg --enable-libzmq --enable-libzvbi --enable-lv2 --enable-omx --enable-openal --enable-opencl --enable-opengl --enable-sdl2 --enable-pocketsphinx --enable-librsvg --enable-libmfx --enable-libdc1394 --enable-libdrm --enable-libiec61883 --enable-chromaprint --enable-frei0r --enable-libx264 --enable-shared\n",
      "  libavutil      56. 70.100 / 56. 70.100\n",
      "  libavcodec     58.134.100 / 58.134.100\n",
      "  libavformat    58. 76.100 / 58. 76.100\n",
      "  libavdevice    58. 13.100 / 58. 13.100\n",
      "  libavfilter     7.110.100 /  7.110.100\n",
      "  libswscale      5.  9.100 /  5.  9.100\n",
      "  libswresample   3.  9.100 /  3.  9.100\n",
      "  libpostproc    55.  9.100 / 55.  9.100\n",
      "[mov,mp4,m4a,3gp,3g2,mj2 @ 0x55d0dc75c240] Auto-inserting h264_mp4toannexb bitstream filter\n",
      "Input #0, concat, from 'file_list.txt':\n",
      "  Duration: N/A, start: 0.000000, bitrate: 314 kb/s\n",
      "  Stream #0:0(und): Video: h264 (High) (avc1 / 0x31637661), yuv420p, 1280x720, 314 kb/s, 30 fps, 30 tbr, 15360 tbn, 60 tbc\n",
      "    Metadata:\n",
      "      handler_name    : VideoHandler\n",
      "      vendor_id       : [0][0][0][0]\n",
      "Output #0, mp4, to 'output.mp4':\n",
      "  Metadata:\n",
      "    encoder         : Lavf58.76.100\n",
      "  Stream #0:0(und): Video: h264 (High) (avc1 / 0x31637661), yuv420p, 1280x720, q=2-31, 314 kb/s, 30 fps, 30 tbr, 15360 tbn, 15360 tbc\n",
      "    Metadata:\n",
      "      handler_name    : VideoHandler\n",
      "      vendor_id       : [0][0][0][0]\n",
      "Stream mapping:\n",
      "  Stream #0:0 -> #0:0 (copy)\n",
      "Press [q] to stop, [?] for help\n",
      "[mov,mp4,m4a,3gp,3g2,mj2 @ 0x55d0dc75cf80] Auto-inserting h264_mp4toannexb bitstream filter\n",
      "    Last message repeated 2 times\n",
      "[mov,mp4,m4a,3gp,3g2,mj2 @ 0x55d0dc783cc0] Auto-inserting h264_mp4toannexb bitstream filter\n",
      "    Last message repeated 1 times\n",
      "frame= 1358 fps=0.0 q=-1.0 Lsize=    2635kB time=00:00:45.16 bitrate= 477.9kbits/s speed= 864x    \n",
      "video:2620kB audio:0kB subtitle:0kB other streams:0kB global headers:0kB muxing overhead: 0.580811%\n"
     ]
    },
    {
     "name": "stdout",
     "output_type": "stream",
     "text": [
      "ffmpeg -i output.mp4 -i videos/vecteezy_transitions-love-green-screen_48868982.mp4 -i videos/vecteezy_2-color-liquid-black-and-red-transition-green-screen_49115368.mp4 -i videos/vecteezy_transitions-love-green-screen_48868982.mp4 -i videos/vecteezy_2-color-liquid-black-and-red-transition-green-screen_49115368.mp4 -i videos/vecteezy_transitions-love-green-screen_48868982.mp4 -filter_complex \"[1:v]chromakey=0x00FF00:0.15:0.25,setpts=PTS+4.5/TB[tr0]; [2:v]chromakey=0x00FF00:0.15:0.25,setpts=PTS+11.5/TB[tr1]; [3:v]chromakey=0x00FF00:0.15:0.25,setpts=PTS+20.134/TB[tr2]; [4:v]chromakey=0x00FF00:0.15:0.25,setpts=PTS+27.134/TB[tr3]; [5:v]chromakey=0x00FF00:0.15:0.25,setpts=PTS+34.134/TB[tr4]; [0:v][tr0]overlay[base1]; [base1][tr1]overlay[base2]; [base2][tr2]overlay[base3]; [base3][tr3]overlay[base4]; [base4][tr4]overlay[v]\" -map [v] -c:v libx264 -c:a aac -preset fast -y videos/temp.mp4\n"
     ]
    },
    {
     "name": "stderr",
     "output_type": "stream",
     "text": [
      "ffmpeg version 4.4.2-0ubuntu0.22.04.1 Copyright (c) 2000-2021 the FFmpeg developers\n",
      "  built with gcc 11 (Ubuntu 11.2.0-19ubuntu1)\n",
      "  configuration: --prefix=/usr --extra-version=0ubuntu0.22.04.1 --toolchain=hardened --libdir=/usr/lib/x86_64-linux-gnu --incdir=/usr/include/x86_64-linux-gnu --arch=amd64 --enable-gpl --disable-stripping --enable-gnutls --enable-ladspa --enable-libaom --enable-libass --enable-libbluray --enable-libbs2b --enable-libcaca --enable-libcdio --enable-libcodec2 --enable-libdav1d --enable-libflite --enable-libfontconfig --enable-libfreetype --enable-libfribidi --enable-libgme --enable-libgsm --enable-libjack --enable-libmp3lame --enable-libmysofa --enable-libopenjpeg --enable-libopenmpt --enable-libopus --enable-libpulse --enable-librabbitmq --enable-librubberband --enable-libshine --enable-libsnappy --enable-libsoxr --enable-libspeex --enable-libsrt --enable-libssh --enable-libtheora --enable-libtwolame --enable-libvidstab --enable-libvorbis --enable-libvpx --enable-libwebp --enable-libx265 --enable-libxml2 --enable-libxvid --enable-libzimg --enable-libzmq --enable-libzvbi --enable-lv2 --enable-omx --enable-openal --enable-opencl --enable-opengl --enable-sdl2 --enable-pocketsphinx --enable-librsvg --enable-libmfx --enable-libdc1394 --enable-libdrm --enable-libiec61883 --enable-chromaprint --enable-frei0r --enable-libx264 --enable-shared\n",
      "  libavutil      56. 70.100 / 56. 70.100\n",
      "  libavcodec     58.134.100 / 58.134.100\n",
      "  libavformat    58. 76.100 / 58. 76.100\n",
      "  libavdevice    58. 13.100 / 58. 13.100\n",
      "  libavfilter     7.110.100 /  7.110.100\n",
      "  libswscale      5.  9.100 /  5.  9.100\n",
      "  libswresample   3.  9.100 /  3.  9.100\n",
      "  libpostproc    55.  9.100 / 55.  9.100\n",
      "Input #0, mov,mp4,m4a,3gp,3g2,mj2, from 'output.mp4':\n",
      "  Metadata:\n",
      "    major_brand     : isom\n",
      "    minor_version   : 512\n",
      "    compatible_brands: isomiso2avc1mp41\n",
      "    encoder         : Lavf58.76.100\n",
      "  Duration: 00:00:45.27, start: 0.000000, bitrate: 476 kb/s\n",
      "  Stream #0:0(und): Video: h264 (High) (avc1 / 0x31637661), yuv420p, 1280x720, 474 kb/s, 30 fps, 30 tbr, 15360 tbn, 60 tbc (default)\n",
      "    Metadata:\n",
      "      handler_name    : VideoHandler\n",
      "      vendor_id       : [0][0][0][0]\n",
      "Input #1, mov,mp4,m4a,3gp,3g2,mj2, from 'videos/vecteezy_transitions-love-green-screen_48868982.mp4':\n",
      "  Metadata:\n",
      "    major_brand     : isom\n",
      "    minor_version   : 512\n",
      "    compatible_brands: isomiso2avc1mp41\n",
      "    encoder         : Lavf59.27.100\n",
      "  Duration: 00:00:05.92, start: 0.000000, bitrate: 440 kb/s\n",
      "  Stream #1:0(und): Video: h264 (High) (avc1 / 0x31637661), yuv420p(tv, bt709), 1280x720, 429 kb/s, 30 fps, 30 tbr, 15360 tbn, 60 tbc (default)\n",
      "    Metadata:\n",
      "      handler_name    : VideoHandler\n",
      "      vendor_id       : [0][0][0][0]\n",
      "      encoder         : Lavc59.37.100 libx264\n",
      "  Stream #1:1(und): Audio: aac (LC) (mp4a / 0x6134706D), 44100 Hz, stereo, fltp, 2 kb/s (default)\n",
      "    Metadata:\n",
      "      handler_name    : SoundHandler\n",
      "      vendor_id       : [0][0][0][0]\n",
      "Input #2, mov,mp4,m4a,3gp,3g2,mj2, from 'videos/vecteezy_2-color-liquid-black-and-red-transition-green-screen_49115368.mp4':\n",
      "  Metadata:\n",
      "    major_brand     : isom\n",
      "    minor_version   : 512\n",
      "    compatible_brands: isomiso2avc1mp41\n",
      "    encoder         : Lavf59.27.100\n",
      "  Duration: 00:00:05.09, start: 0.000000, bitrate: 1122 kb/s\n",
      "  Stream #2:0(und): Video: h264 (High) (avc1 / 0x31637661), yuv420p(tv, bt709), 1280x720, 1113 kb/s, 30 fps, 30 tbr, 15360 tbn, 60 tbc (default)\n",
      "    Metadata:\n",
      "      handler_name    : VideoHandler\n",
      "      vendor_id       : [0][0][0][0]\n",
      "      encoder         : Lavc59.37.100 libx264\n",
      "  Stream #2:1(und): Audio: aac (LC) (mp4a / 0x6134706D), 44100 Hz, stereo, fltp, 2 kb/s (default)\n",
      "    Metadata:\n",
      "      handler_name    : SoundHandler\n",
      "      vendor_id       : [0][0][0][0]\n",
      "Input #3, mov,mp4,m4a,3gp,3g2,mj2, from 'videos/vecteezy_transitions-love-green-screen_48868982.mp4':\n",
      "  Metadata:\n",
      "    major_brand     : isom\n",
      "    minor_version   : 512\n",
      "    compatible_brands: isomiso2avc1mp41\n",
      "    encoder         : Lavf59.27.100\n",
      "  Duration: 00:00:05.92, start: 0.000000, bitrate: 440 kb/s\n",
      "  Stream #3:0(und): Video: h264 (High) (avc1 / 0x31637661), yuv420p(tv, bt709), 1280x720, 429 kb/s, 30 fps, 30 tbr, 15360 tbn, 60 tbc (default)\n",
      "    Metadata:\n",
      "      handler_name    : VideoHandler\n",
      "      vendor_id       : [0][0][0][0]\n",
      "      encoder         : Lavc59.37.100 libx264\n",
      "  Stream #3:1(und): Audio: aac (LC) (mp4a / 0x6134706D), 44100 Hz, stereo, fltp, 2 kb/s (default)\n",
      "    Metadata:\n",
      "      handler_name    : SoundHandler\n",
      "      vendor_id       : [0][0][0][0]\n",
      "Input #4, mov,mp4,m4a,3gp,3g2,mj2, from 'videos/vecteezy_2-color-liquid-black-and-red-transition-green-screen_49115368.mp4':\n",
      "  Metadata:\n",
      "    major_brand     : isom\n",
      "    minor_version   : 512\n",
      "    compatible_brands: isomiso2avc1mp41\n",
      "    encoder         : Lavf59.27.100\n",
      "  Duration: 00:00:05.09, start: 0.000000, bitrate: 1122 kb/s\n",
      "  Stream #4:0(und): Video: h264 (High) (avc1 / 0x31637661), yuv420p(tv, bt709), 1280x720, 1113 kb/s, 30 fps, 30 tbr, 15360 tbn, 60 tbc (default)\n",
      "    Metadata:\n",
      "      handler_name    : VideoHandler\n",
      "      vendor_id       : [0][0][0][0]\n",
      "      encoder         : Lavc59.37.100 libx264\n",
      "  Stream #4:1(und): Audio: aac (LC) (mp4a / 0x6134706D), 44100 Hz, stereo, fltp, 2 kb/s (default)\n",
      "    Metadata:\n",
      "      handler_name    : SoundHandler\n",
      "      vendor_id       : [0][0][0][0]\n",
      "Input #5, mov,mp4,m4a,3gp,3g2,mj2, from 'videos/vecteezy_transitions-love-green-screen_48868982.mp4':\n",
      "  Metadata:\n",
      "    major_brand     : isom\n",
      "    minor_version   : 512\n",
      "    compatible_brands: isomiso2avc1mp41\n",
      "    encoder         : Lavf59.27.100\n",
      "  Duration: 00:00:05.92, start: 0.000000, bitrate: 440 kb/s\n",
      "  Stream #5:0(und): Video: h264 (High) (avc1 / 0x31637661), yuv420p(tv, bt709), 1280x720, 429 kb/s, 30 fps, 30 tbr, 15360 tbn, 60 tbc (default)\n",
      "    Metadata:\n",
      "      handler_name    : VideoHandler\n",
      "      vendor_id       : [0][0][0][0]\n",
      "      encoder         : Lavc59.37.100 libx264\n",
      "  Stream #5:1(und): Audio: aac (LC) (mp4a / 0x6134706D), 44100 Hz, stereo, fltp, 2 kb/s (default)\n",
      "    Metadata:\n",
      "      handler_name    : SoundHandler\n",
      "      vendor_id       : [0][0][0][0]\n",
      "Stream mapping:\n",
      "  Stream #0:0 (h264) -> overlay:main\n",
      "  Stream #1:0 (h264) -> chromakey\n",
      "  Stream #2:0 (h264) -> chromakey\n",
      "  Stream #3:0 (h264) -> chromakey\n",
      "  Stream #4:0 (h264) -> chromakey\n",
      "  Stream #5:0 (h264) -> chromakey\n",
      "  overlay -> Stream #0:0 (libx264)\n",
      "Press [q] to stop, [?] for help\n",
      "[libx264 @ 0x55a7b3611bc0] using cpu capabilities: MMX2 SSE2Fast SSSE3 SSE4.2 AVX FMA3 BMI2 AVX2\n",
      "[libx264 @ 0x55a7b3611bc0] profile High, level 3.1, 4:2:0, 8-bit\n",
      "[libx264 @ 0x55a7b3611bc0] 264 - core 163 r3060 5db6aa6 - H.264/MPEG-4 AVC codec - Copyleft 2003-2021 - http://www.videolan.org/x264.html - options: cabac=1 ref=2 deblock=1:0:0 analyse=0x3:0x113 me=hex subme=6 psy=1 psy_rd=1.00:0.00 mixed_ref=1 me_range=16 chroma_me=1 trellis=1 8x8dct=1 cqm=0 deadzone=21,11 fast_pskip=1 chroma_qp_offset=-2 threads=22 lookahead_threads=3 sliced_threads=0 nr=0 decimate=1 interlaced=0 bluray_compat=0 constrained_intra=0 bframes=3 b_pyramid=2 b_adapt=1 b_bias=0 direct=1 weightb=1 open_gop=0 weightp=1 keyint=250 keyint_min=25 scenecut=40 intra_refresh=0 rc_lookahead=30 rc=crf mbtree=1 crf=23.0 qcomp=0.60 qpmin=0 qpmax=69 qpstep=4 ip_ratio=1.40 aq=1:1.00\n",
      "Output #0, mp4, to 'videos/temp.mp4':\n",
      "  Metadata:\n",
      "    major_brand     : isom\n",
      "    minor_version   : 512\n",
      "    compatible_brands: isomiso2avc1mp41\n",
      "    encoder         : Lavf58.76.100\n",
      "  Stream #0:0: Video: h264 (avc1 / 0x31637661), yuv420p(progressive), 1280x720, q=2-31, 30 fps, 15360 tbn (default)\n",
      "    Metadata:\n",
      "      encoder         : Lavc58.134.100 libx264\n",
      "    Side data:\n",
      "      cpb: bitrate max/min/avg: 0/0/0 buffer size: 0 vbv_delay: N/A\n",
      "frame= 1358 fps= 26 q=-1.0 Lsize=    4358kB time=00:00:45.16 bitrate= 790.4kbits/s speed=0.875x    \n",
      "video:4341kB audio:0kB subtitle:0kB other streams:0kB global headers:0kB muxing overhead: 0.382062%\n",
      "[libx264 @ 0x55a7b3611bc0] frame I:10    Avg QP:17.71  size: 33111\n",
      "[libx264 @ 0x55a7b3611bc0] frame P:395   Avg QP:20.56  size:  7274\n",
      "[libx264 @ 0x55a7b3611bc0] frame B:953   Avg QP:23.32  size:  1301\n",
      "[libx264 @ 0x55a7b3611bc0] consecutive B-frames:  3.4%  8.2%  2.7% 85.7%\n",
      "[libx264 @ 0x55a7b3611bc0] mb I  I16..4: 20.9% 60.6% 18.4%\n",
      "[libx264 @ 0x55a7b3611bc0] mb P  I16..4:  2.9%  7.0%  2.0%  P16..4: 24.5%  5.6%  2.4%  0.0%  0.0%    skip:55.6%\n",
      "[libx264 @ 0x55a7b3611bc0] mb B  I16..4:  0.5%  0.2%  0.3%  B16..8:  6.6%  1.0%  0.1%  direct: 1.4%  skip:90.0%  L0:45.6% L1:52.8% BI: 1.7%\n",
      "[libx264 @ 0x55a7b3611bc0] 8x8 transform intra:54.1% inter:73.5%\n",
      "[libx264 @ 0x55a7b3611bc0] coded y,uvDC,uvAC intra: 29.1% 58.2% 28.6% inter: 2.1% 4.8% 0.5%\n",
      "[libx264 @ 0x55a7b3611bc0] i16 v,h,dc,p: 44% 40%  9%  8%\n",
      "[libx264 @ 0x55a7b3611bc0] i8 v,h,dc,ddl,ddr,vr,hd,vl,hu: 34% 22% 28%  3%  3%  3%  3%  3%  3%\n",
      "[libx264 @ 0x55a7b3611bc0] i4 v,h,dc,ddl,ddr,vr,hd,vl,hu: 31% 16% 25%  5%  5%  6%  4%  5%  2%\n",
      "[libx264 @ 0x55a7b3611bc0] i8c dc,h,v,p: 48% 26% 22%  4%\n",
      "[libx264 @ 0x55a7b3611bc0] Weighted P-Frames: Y:0.0% UV:0.0%\n",
      "[libx264 @ 0x55a7b3611bc0] ref P L0: 67.2% 32.8%\n",
      "[libx264 @ 0x55a7b3611bc0] ref B L0: 76.3% 23.7%\n",
      "[libx264 @ 0x55a7b3611bc0] ref B L1: 95.4%  4.6%\n",
      "[libx264 @ 0x55a7b3611bc0] kb/s:785.51\n"
     ]
    }
   ],
   "source": [
    "videos = [\n",
    "    'videos/generate_image_2713290630.mp4',\n",
    "    'videos/generate_image_3134509374.mp4',\n",
    "    'videos/generate_image_139392932.mp4',\n",
    "    'videos/generate_image_2713290630.mp4',\n",
    "    'videos/generate_image_3134509374.mp4',\n",
    "    'videos/generate_image_139392932.mp4',\n",
    "            \n",
    "    ]\n",
    "\n",
    "\n",
    "overlay_videos = [\n",
    "        'videos/vecteezy_2-color-liquid-black-and-red-transition-green-screen_49115368.mp4',\n",
    "        # 'videos/vecteezy_red-liquid-transition-green-screen_49115367.mp4',\n",
    "        # 'videos/vecteezy_transition-ink-gradient-color-green-screen-free_48868911.mp4',\n",
    "        'videos/vecteezy_transitions-love-green-screen_48868982.mp4',\n",
    "        \n",
    "    ]\n",
    "\n",
    "short_overlay_videos = [\n",
    "        'videos/1.mp4',\n",
    "        'videos/2.mp4',\n",
    "        'videos/3.mp4',\n",
    "        'videos/4.mp4',  \n",
    "        'videos/5.mp4',  \n",
    "        'videos/6.mp4',  \n",
    "        'videos/7.mp4',\n",
    "        'videos/8.mp4',  \n",
    "        'videos/9.mp4',  \n",
    "    \n",
    "    ]\n",
    "\n",
    "output_video_avi = 'output.mp4'\n",
    "\n",
    "effects_next =[ 1 for i in range(len(videos))]\n",
    "\n",
    "concatenate_videos(videos, output_video_avi, overlay_videos, short_overlay_videos, effects_next)"
   ]
  },
  {
   "cell_type": "code",
   "execution_count": null,
   "id": "932d3e19-afdb-4335-b3c8-fa47a5791d21",
   "metadata": {},
   "outputs": [],
   "source": []
  },
  {
   "cell_type": "code",
   "execution_count": null,
   "id": "1963e0ce-7228-4e16-9d4c-0642b87a97f8",
   "metadata": {},
   "outputs": [],
   "source": []
  }
 ],
 "metadata": {
  "kernelspec": {
   "display_name": "Python 3 (ipykernel)",
   "language": "python",
   "name": "python3"
  },
  "language_info": {
   "codemirror_mode": {
    "name": "ipython",
    "version": 3
   },
   "file_extension": ".py",
   "mimetype": "text/x-python",
   "name": "python",
   "nbconvert_exporter": "python",
   "pygments_lexer": "ipython3",
   "version": "3.11.10"
  }
 },
 "nbformat": 4,
 "nbformat_minor": 5
}
